<?xml version="1.0" encoding="UTF-8"?><svg id="Layer_1" xmlns="http://www.w3.org/2000/svg" viewBox="0 0 179.51 127.91"><defs><style>.cls-1{letter-spacing:0em;}.cls-2{letter-spacing:-.02em;}.cls-3{letter-spacing:.02em;}.cls-4{font-family:AmericanTypewriter, 'American Typewriter';font-size:16.42px;}.cls-5{letter-spacing:.01em;}.cls-6{stroke-width:0px;}.cls-7{letter-spacing:-.01em;}</style></defs><path class="cls-6" d="m2.12,7.67c.08.07.19.11.23.2.08.16.15.29.41.2-.28.34.11.36.16.51-.08.05-.14.1-.2.14.05.05.11.09.15.14.1.12.22.24.29.38.1.21.16.45.25.67.06.13.14.26.22.38.02.03.11.02.17.03.08.01.16.04.23.05,0,.02,0,.04,0,.06-.05.03-.1.05-.13.07.05.15.1.28.13.41.05.26.34.4.55.24,0,.09,0,.18.01.28-.08.03-.2.08-.37.14.06.07.1.11.13.16s.05.11.07.16c.1-.04.2-.07.34-.12-.05.19-.05.29.15.34.23.06.4.39.38.63,0,.03-.02.09-.01.09.36.09.24.58.56.71.04.01.04.1.07.16.07.14.11.31.21.4.23.21.39.45.48.79.06-.08.09-.12.17-.23.03.21.05.36.09.57.16.08.38.19.61.31.01-.04.03-.08.05-.14.12.14.28.24.13.44-.02.03.03.11.08.15-.01.07-.07.17-.03.22.1.16.24.31.37.46.07.09.16.16.29.28,0,.08-.04.24.22.25.17.01.22.19.17.3.24.19.47.37.68.56.04.03.06.13.04.18-.07.19.06.23.17.28.26.13.47.33.61.58.05.09.12.16.2.27-.01.03-.04.09-.05.12.11.07.22.13.32.2-.22.21-.08.36.57.65-.16.01-.28.03-.4.04.12.09.22.21.4.12.02-.01.08.02.11.04.13.17.25.34.38.51.04.04.13.11.13.1.21-.2.18.06.25.13.19.18.2.51.52.59.08.02.14.18.2.28.1.17.27.19.43.28.27.14.7.05.8.48.01.05.13.07.18.12.24.22.4.48.47.8,0,.05.07.09.12.13.3.23.6.46.89.7.28.23.33.22.56-.07.1-.12.24-.2.36-.29.03-.03.07-.04.1-.07.64-.55,1.3-1.09,1.92-1.67.49-.46,1.07-.8,1.62-1.19.51-.37,1.01-.75,1.44-1.23.13-.16.36-.23.55-.34.06-.03.12-.06.17-.1.52-.4,1.04-.81,1.56-1.21.35-.27.73-.5,1.05-.8.77-.71,1.69-1.22,2.55-1.81.38-.26.78-.47,1.17-.72.06-.04.1-.12.16-.17.02-.02.06-.06.08-.06.16.03.2-.07.28-.19.1-.13.25-.22.4-.31.28-.19.55-.38.85-.53.36-.19.59-.56,1.04-.61.13-.01.28-.14.31-.34.01,0,.07.02.12.01.07,0,.19-.03.19-.06.05-.39.45-.37.67-.56.07-.07.17-.11.26-.16.14-.09.28-.17.41-.26.22-.15.44-.31.67-.45.13-.08.28-.11.41-.18.26-.14.52-.28.77-.45.97-.66,1.95-1.3,3.03-1.75.46-.19.92-.4,1.38-.61.25-.11.49-.25.73-.37.49-.24.99-.48,1.48-.73.31-.15.61-.32.92-.46.33-.15.67-.27,1.01-.4.02,0,.05-.01.07-.03.29-.41.8-.4,1.2-.59.64-.31,1.3-.62,1.96-.88.47-.19.98-.29,1.47-.43.19-.05.4-.04.52-.26.02-.03.06-.07.1-.07.64-.08,1.17-.42,1.74-.66.26-.11.53-.2.79-.31.1-.04.19-.11.28-.14.26-.07.54-.11.79-.2.37-.13.73-.3,1.1-.46.8-.35,1.61-.68,2.49-.8.33-.04.66-.08.91-.37.07-.08.25-.06.39-.08.67-.1,1.33-.19,2-.3.46-.07.92-.16,1.38-.23.25-.04.49-.04.74-.08.18-.02.35-.07.53-.11.06-.01.12-.04.18-.03.33.07.59-.17.9-.17.1,0,.2.03.31.03.11,0,.22.02.33,0,.48-.07.95-.15,1.42-.24.19-.03.4-.15.56-.1.4.14.77-.08,1.14-.03.41.05.82-.04,1.2.02.25.04.47-.07.71.02.16.06.36.06.54.07.23,0,.46,0,.64.19.01.01.05.03.07.02.49-.08.91.28,1.41.22.23-.03.49.06.71.16.19.08.37.23.52.39.07.07.29-.03.21.19.27.08.34.44.67.47.16.01.3.12.47.19-.09.07-.13.11-.17.14.07.04.14.09.21.13-.01,0-.03.02-.04.03.05.08.1.17.16.25.24.31.6.55.7.96-.02.01-.04.03-.05.04-.15-.16-.3-.33-.44-.5-.09-.1-.15-.22-.33-.14-.06.03-.18.01-.14-.16.01-.08-.16-.22-.26-.29-.11-.08-.25-.12-.36-.22.05,0,.1-.01.16-.02,0-.2-.09-.25-.3-.29-.28-.05-.54-.22-.81-.34-.22-.1-.43-.22-.65-.28-.34-.11-.69-.19-1.04-.27-.13-.03-.26,0-.39,0,.04.19.02.21-.32.19,0-.06.01-.12.03-.23-.09.03-.16.06-.24.07-.05,0-.11-.01-.17-.03-.1-.03-.2-.07-.3-.1-.02,0-.06,0-.07,0-.06-.04-.13-.14-.16-.13-.25.07-.5.17-.74.27-.02,0,0,.08-.01.1-.16-.02-.31-.05-.42-.06.04-.1.1-.24.16-.38h-.68c-.05.1-.11.21-.18.35-.2-.24-.37-.19-.57-.06-.29.18-.62.23-.95.21-.16-.01-.33,0-.5-.08-.11-.05-.31.09-.47.13-.17.04-.34.06-.51.07-.13.01-.27-.01-.4,0-.29.04-.58.14-.86.12-.25-.01-.49.05-.7.13-.43.15-.86.2-1.3.22-.06,0-.13.02-.23.04.09.06.14.1.19.13,0,.03-.01.05-.02.08-.24-.03-.47-.07-.71-.09-.07,0-.15,0-.2.03-.34.18-.68.36-1.05.55.07.01.13.02.19.04-.25.09-.48.3-.77.08-.07-.05-.2,0-.35,0-.07-.15-.23-.04-.37,0-.18.05-.35.11-.53.16-.28.08-.59.09-.84.28-.07.06-.15.12-.24.14-.07.02-.17-.04-.24-.02-.12.04-.31.01-.31.22-.17,0-.26.22-.48.16-.15-.05-.33-.03-.45.14-.07.1-.19.18-.3.23-.37.17-.72.45-1.13.42-.35-.03-.51.2-.74.33-.19.1-.4.19-.59.29-.04.02-.07.09-.13.18-.29-.05-.61.05-.92.26-.07.04-.21-.02-.35-.04-.06.05-.14.16-.25.22-.09.06-.21.17-.31,0,0-.01-.07-.01-.1,0-.27.12-.64.08-.76.44-.1-.2-.26-.13-.37-.08-.16.07-.43.2-.43.31,0,.31-.23.25-.38.32-.17.08-.36.15-.54.22-.21.09-.42.17-.64.25.02.03.05.05.07.08-.04.06-.08.15-.13.17-.15.04-.31.04-.46.09-.1.03-.18.13-.23.16-.12.04-.21.08-.29.11-.04.01-.09.01-.13.02-.08.02-.21,0-.25.06-.22.31-.58.33-.88.47-.28.13-.61.18-.68.56,0,0-.01,0-.02.01-.36.26-.72.53-1.08.79-.07.05-.18.04-.28.06-.03,0-.07,0-.09.02-.24.15-.48.31-.73.44-.13.07-.28.07-.42.11-.11.04-.21.11-.31.14-.11.04-.23.05-.35.08-.09.03-.19.05-.27.1-1.11.68-2.21,1.39-3.33,2.05-.46.27-.98.45-1.46.69-.19.1-.34.25-.52.37-.04.02-.1,0-.15.02-.07.02-.14.05-.2.09-.16.09-.31.19-.48.28-.14.07-.34.08-.35.31,0,.04-.07.07-.11.1-.39.23-.77.46-1.16.68-.13.07-.29.08-.5.14l.25.16c-.8.23-1.31.82-1.92,1.28-.04.03-.11.05-.16.04-.24-.01-.41.06-.47.31,0,.04-.05.07-.08.09-.89.55-1.66,1.31-2.58,1.8-.65.35-1.18.86-1.77,1.28-.13.1-.27.19-.4.29-.41.33-.8.68-1.21,1-.78.61-1.57,1.22-2.36,1.81-.43.32-.89.61-1.33.91-.03.02-.07.04-.08.06-.06.34-.37.45-.59.64-.61.52-1.24,1-1.88,1.52.09.13.08.33.33.27.04,0,.11.07.15.13.18.21.35.42.54.64.01-.02.05-.06.09-.11.02.01.04.03.05.05.13.31.41.43.67.58.13.07.3.11.26.32,0,.03.04.1.08.11.5.12.82.53,1.24.8.18.12.31.31.47.45.22.18.46.34.7.5.31.21.64.41.96.63.45.31.89.62,1.33.94.25.18.5.38.78.6.06.02.19.04.29.1,1.31.79,2.62,1.59,3.94,2.38.24.14.54.21.8.32.52.22,1.02.47,1.46.84.3.25.7.39.99.65.31.27.7.35,1.02.56.18.12.34.25.55.34.05.02.05.17.09.24.04.07.1.15.17.16.13.01.26-.01.4-.03-.05.26-.23.42-.53.4-.71-.05-1.42-.1-2.12-.23-2.04-.4-3.94-1.19-5.72-2.27-.1-.06-.19-.14-.27-.22-.25-.27-.57-.4-.9-.55-.22-.1-.42-.25-.63-.37-.36-.22-.74-.42-1.09-.65-.23-.16-.45-.34-.65-.54-.21-.21-.45-.36-.73-.44-.15-.04-.31-.09-.34-.29,0-.04-.07-.07-.1-.09-.23-.15-.47-.29-.7-.45-.29-.21-.55-.47-.86-.64-.63-.34-1.09-.89-1.62-1.34-.18-.15-.34-.31-.56-.42-.24-.11-.41-.35-.62-.53-.04-.04-.1-.06-.14-.1-.07-.06-.13-.12-.19-.18-.1-.09-.25-.16-.28-.27-.05-.21-.26-.13-.36-.25-.16-.18-.34-.34-.53-.49-.04-.03-.19,0-.25.06-.44.35-.88.72-1.32,1.08-.48.4-.94.83-1.44,1.19-.44.31-.71.78-1.15,1.09-.41.3-.79.64-1.18.96-.38.3-.76.61-1.15.89-.68.49-1.36.97-2.05,1.44-.13.09-.29.14-.43.21-.01,0-.03.01-.04.02-.27.42-.75.61-1.05,1-.02.03-.05.07-.07.07-.35-.01-.44.31-.65.48-.11.09-.28.17-.41.16-.28-.04-.37.11-.46.31-.04.1-.12.17-.19.26-.02.03-.07.04-.08.06-.08.42-.2.03-.27.02.04-.1.07-.2.11-.31.03-.08.05-.18.09-.25.75-1.27,1.74-2.34,2.73-3.41,2.25-2.43,4.69-4.65,7.21-6.78.06-.05.13-.11.2-.18-.13-.16-.26-.31-.38-.46-.14-.17-.31-.34-.43-.53-.2-.33-.48-.58-.76-.84-.28-.24-.51-.53-.77-.79-.16-.16-.22-.39-.48-.49-.13-.05-.19-.28-.3-.42-.25-.3-.53-.57-.76-.88-.17-.23-.28-.51-.42-.76-.04-.07-.05-.18-.1-.19-.25-.09-.3-.35-.46-.51-.25-.25-.47-.55-.7-.83-.1-.13-.16-.28-.25-.41-.1-.14-.19-.29-.31-.42-.39-.45-.79-.88-.99-1.45-.01-.03-.04-.07-.06-.08-.34-.1-.39-.43-.53-.67-.15-.26-.23-.56-.38-.82-.22-.37-.52-.7-.7-1.09-.12-.26-.48-.39-.4-.76.01-.07-.14-.18-.21-.27-.14-.19-.36-.37-.41-.58-.06-.3-.23-.52-.36-.76-.03-.05-.02-.12-.05-.17-.14-.25-.28-.51-.42-.76-.06-.11-.15-.22-.19-.34-.06-.16-.08-.34-.12-.52,0-.03-.02-.06-.03-.09-.14-.19-.31-.37-.4-.59-.1-.22-.18-.5-.13-.72.04-.17-.06-.17-.12-.22-.07-.07-.16-.12-.22-.23h.13c.05-.36-.19-.61-.28-.9v-.1h0Z"/><path class="cls-6" d="m14.5,51.08c.15-.13.13-.3.1-.47-.02-.13-.05-.27-.08-.4,0-.03-.01-.09-.02-.09-.22,0-.13-.17-.13-.28,0-.43.01-.87.03-1.3,0-.17.03-.33.06-.53-.09.04-.13.06-.17.08-.01-.09-.07-.19-.04-.27.09-.27.14-.53.08-.83-.03-.18.06-.39.09-.58.02-.11.05-.22.02-.32-.16-.62-.09-1.24-.02-1.86.36-.02.71-.03,1.05-.05.19-.02.43,0,.56-.11.26-.22.55-.05.82-.15.29-.12.61-.16.93-.21.1-.02.2.06.31.09.04,0,.08,0,.12,0,.43-.03.85-.08,1.28-.09.27,0,.55.02.81.11.79.27,1.55-.13,2.33-.06.95.09,1.89-.07,2.84-.13.27-.02.53.07.8.08.41.02.83.04,1.24.04.25,0,.49-.05.79-.09-.08.04-.12.05-.16.07v-.54s.8,0,1,0c.14,0,.27.03.41.04.18,0,.34.06.52-.08.1-.08.32-.02.48-.02.45.02.91.02,1.36.05.17.01.34.09.56.15-.04-.12-.06-.17-.09-.25.15.02.28.06.41.06.77-.02,1.54-.05,2.31-.08.08,0,.18,0,.24.03.25.14.49.23.74,0,.02-.02.05,0,.08,0,1.36.03,2.72-.11,4.08-.03.59.03,1.18,0,1.77,0,.36,0,.72.04,1.07.03.39-.01.77-.08,1.16-.09.41,0,.81.03,1.22.03.3,0,.6-.06.9-.07.56-.01,1.11,0,1.73,0-.48-.51-.79-1.17-1.6-1.21-.31-.01-.53-.51-.39-.85.24-.6,1.2-1.01,1.8-.77.29.12.63.18.86.37.24.19.55.29.71.58.12.21.31.38.46.57.13.18.23.37.35.55.02.04.05.1.09.11.19.04.21.19.18.32-.05.22.14.29.23.42.03.04.15.05.19.02.24-.2.52-.13.78-.13,1.41,0,2.82.02,4.23.03.92,0,1.84,0,2.76,0,.1,0,.19-.02.29-.03l.05-.08c-.2-.24-.39-.48-.59-.72-.1-.12-.21-.22-.29-.35-.24-.37-.62-.48-1-.59-.39-.12-.59-.47-.4-.84.26-.52.73-.74,1.28-.78.23-.02.46-.02.67.17.14.12.39.12.58.19.11.04.2.13.3.2.14.1.3.19.42.31.28.28.51.59.7.94.09.17.27.3.4.45.04.05.09.12.08.18-.05.37.31.6.33.94,0,.02.06.06.09.06.31.03.63.12.93.08,1.14-.17,2.27-.09,3.4-.02.61.04,1.22.08,1.83.15,1.01.12,2.01.26,3.02.39.09.01.18.1.27.1.18,0,.36-.03.54-.02.14,0,.28.07.42.08.32.02.65,0,.97.02.14,0,.31-.06.39.14,0,.02.08.02.12.02.24,0,.48-.04.71-.02.17.02.37.09.5.2.22.2.42.2.65.07.12-.07.23-.14.38-.04.04.02.1.02.15.02.07,0,.14-.03.21-.05l.02.2c-.22.1-.39.22-.57.26-.53.11-1.06.22-1.6.26-1.94.13-3.88.27-5.82.33-2.1.07-4.21.07-6.32.1-.47,0-.47,0-.77.34-.08.09-.19.15-.29.19-.03.01-.13-.09-.15-.15-.02-.07,0-.16.02-.24-.18-.19-.42-.15-.64-.15-.98,0-1.96-.01-2.94-.03-.29,0-.57-.08-.86-.11-.15-.02-.31,0-.46.53h-.72c-.03-.53-.07-.54-.1-.54-.55.03-1.1.08-1.65.1-.49.02-.98,0-1.47.44h-.95c-.03-.28,0-.1-.09.02-.12.19-.3.35-.46.52-.02.02-.06,0-.07.02-.08.1-.15.19-.29.07-.14-.11.04-.19.02-.29,0-.02.01-.05.02-.09-.06-.02-.11-.03-.17-.05.05-.04.09-.07.16-.12l-.82-.02v.31c.1,0,.19-.01.36-.03-.15-.05-.24-.08-.34-.11.1-.3.07-.36-.23-.37-.41,0-.81,0-1.22,0-.3,0-.59-.07-.88-.08-.16,0-.32.05-.47.07-.38.04-.77.15-1.13.08-.75-.14-1.49.1-2.23,0-.26-.03-.52-.06-.78-.05-.86.03-1.73.09-2.59.11-.44.01-.88-.01-1.31-.03-.95-.03-1.91-.07-2.86-.09-.1,0-.2.05-.32.08-.11-.12-.24-.09-.43-.03-.23.08-.5.04-.76.04-.33,0-.67.03-1-.02-.47-.06-.94.18-1.42-.05-.13-.06-.33.07-.5.1-.04,0-.1,0-.15-.02-.09-.02-.21-.09-.27-.06-.33.2-.67.08-1.01.07h-.32c-.19,0-.39,0-.58.02-.31.02-.63.05-.94.05-.26,0-.52-.07-.77-.06-.79.04-1.58.11-2.37.15-.38.02-.76,0-1.14,0-.56,0-1.13.04-1.69.02-.49-.02-.99-.1-1.48-.12-.32-.02-.64,0-.97.01-.56.02-1.12.05-1.68.07-.56.01-1.13,0-1.7,0-.01.24-.04.48-.05.72-.02.63-.03,1.25-.04,1.88-.01.85-.01,1.7-.18,2.54-.04.18-.06.36-.09.54,0,.03-.02.07-.01.1.14.6-.01,1.19-.02,1.79,0,.3.04.6.04.9,0,.37-.03.73-.04,1.1,0,.12.04.24.03.36-.04.42-.12.84-.13,1.27-.02.51.04,1.02,0,1.53-.02.29.1.57.07.82-.08.67-.07,1.35-.17,2.02-.06.39-.14.8.08,1.2.07.13-.02.38-.04.57-.03.32-.07.64-.1.96-.06.58-.14,1.16-.18,1.75-.03.41,0,.82-.01,1.24-.01.37-.07.75-.08,1.12,0,.22.04.45.04.67,0,.16-.05.32-.07.47-.01.08-.04.17-.01.23.15.35.09.69-.03,1.04-.04.11-.05.24-.05.36,0,.61,0,1.22,0,1.82,0,.07.01.14.02.21,0,.16.06.34,0,.47-.19.39-.1.79-.1,1.18-.01.46-.05.92-.05,1.38,0,.24-.1.47-.02.72.04.15-.04.34-.05.52-.01.12-.05.26-.01.37.11.29-.07.57,0,.86-.3.27.07.7-.23.99-.07.07,0,.32.01.49.02.46.05.91.04,1.37,0,.25-.1.49-.14.74-.02.12-.02.23-.03.37-.01,0-.05-.01-.04,0-.29.57-.03,1.15-.04,1.73-.03-.06-.07-.12-.1-.17-.3.04.24.42-.17.41-.02.2-.1.41-.06.59.04.21.09.39.04.61-.05.2-.06.41-.08.62-.03,0-.07,0-.1,0,0-.29,0-.59,0-.88,0-.17.07-.33-.14-.43-.04-.02-.07-.15-.04-.18.22-.25.14-.52.08-.8-.03-.13-.04-.27-.06-.41.02,0,.04-.01.07-.02.03.07.05.14.08.2.22-.21.1-.43.05-.69-.07-.39-.04-.81-.03-1.22,0-.34.03-.68.06-1.02.01-.13.05-.27.08-.4,0-.02.02-.06.01-.07-.2-.42.14-.87-.09-1.3-.01,0-.05.04-.13.11-.03-.18-.06-.34-.09-.52.09.02.15.04.28.07-.05-.15-.1-.26-.11-.37,0-.06.03-.13.05-.19.03-.1.05-.2.09-.3.03-.08.07-.16.09-.24.01-.06.03-.14.02-.19-.09-.3-.18-.59-.28-.92-.05.04-.1.07-.14.1-.01,0-.02-.02-.03-.03.05-.1.14-.2.16-.31.02-.1-.02-.22-.04-.31.12.08.25.15.41.24v-.88c-.11-.09-.21-.17-.31-.26.03-.01.07-.02.1-.03.02-.19.1-.41.04-.58-.17-.47-.2-.93-.11-1.4.04-.19.05-.37.14-.56.07-.15-.03-.39-.04-.59,0-.22,0-.45.01-.67,0-.19.04-.37.05-.56.01-.33-.03-.67.03-.99.07-.31.04-.61.01-.9-.06-.56-.03-1.12.05-1.67.01-.08.01-.17.02-.32-.09.1-.13.15-.17.2-.03-.01-.05-.02-.08-.03.09-.29.18-.57.26-.86.02-.06.03-.13.02-.19-.09-.48-.19-.95-.3-1.47-.04.08-.07.13-.09.17-.03-.33-.15-.66.13-.95.07-.08.06-.24.1-.42.17-.03.1-.25.1-.43,0-.17-.03-.33-.03-.5,0-.26-.08-.56.02-.77.09-.2.04-.36,0-.51-.05-.17-.03-.31,0-.48.05-.37-.05-.76-.1-1.14-.02,0-.04,0-.07,0,.08-.12.15-.25.26-.42-.39-.77-.18-1.68-.14-2.57,0,.06.02.12.03.19.02,0,.04-.02.04-.02l-.18-1.91h.19v.68s-.07,0-.11-.01c.05-.29.11-.58.16-.87.05-.32.16-.63.06-.97-.05-.18,0-.3.16-.32-.04-.31-.08-.62-.12-.92.02,0,.04,0,.05,0,.02.04.03.08.05.12.02,0,.04,0,.06,0,.02-.1.06-.2.06-.3,0-.27.11-.56-.06-.82-.02-.03.03-.11.04-.16,0,0,0,0,.01,0h0Z"/><path class="cls-6" d="m25.43,76.23s.1-.06.15-.1c1.68-1.32,3.5-2.42,5.34-3.49.07-.04.15-.08.24-.09.36-.06.61-.29.87-.5.19-.16.41-.27.62-.41.35-.23.68-.48,1.04-.7.26-.15.54-.25.81-.4.17-.09.33-.2.48-.33.17-.14.27-.38.56-.33.02,0,.06-.03.08-.05.31-.2.63-.4.94-.6.24-.16.46-.35.71-.51.55-.34,1.11-.67,1.66-.99.2-.12.4-.21.57-.4.17-.19.45-.28.68-.42.06-.03.11-.08.16-.13.03-.03.05-.07.09-.09.2-.08.52-.1.57-.24.12-.29.43-.25.58-.46.04-.06.13-.08.2-.13.44-.29.94-.51,1.32-.87.45-.43,1.01-.65,1.51-.98.11-.08.26-.09.38-.16.24-.13.48-.26.71-.41.43-.29.85-.6,1.29-.89.28-.18.59-.32.87-.5.3-.18.56-.41.86-.58.21-.12.46-.19.7-.27.14-.05.29-.03.38-.23.06-.13.3-.17.46-.27.3-.19.59-.41.9-.6.13-.08.28-.13.43-.19.11-.05.22-.09.31-.16.48-.35.94-.74,1.52-.93.14-.04.23-.21.35-.32.04-.04.09-.08.14-.1.59-.22,1.17-.46,1.71-.8.28-.17.59-.29.87-.45.09-.05.16-.23.24-.23.39,0,.58-.34.9-.46.09-.04.16-.2.24-.21.29-.02.5-.18.73-.34.08-.06.18-.07.27-.12.23-.12.46-.24.68-.36.14-.08.33-.28.39-.24.17.11.18-.02.24-.11l.04.07c.14-.07.3-.13.43-.22.35-.23.69-.48,1.15-.44.05,0,.13-.08.17-.14s.08-.13.12-.2c.01-.02.04-.02.09-.05.02.05.03.1.04.14.11-.02.22-.01.32-.05.2-.09.4-.21.59-.31l.06.07c-.05.06-.09.15-.16.18-.16.08-.32.16-.2.45-.36-.27-.36.08-.49.18-.06-.07-.12-.14-.18-.2-.04.06-.08.13-.13.18-.09.09-.18.19-.29.25-.22.12-.46.21-.69.33-.15.08-.29.17-.42.27-.03.02-.02.1-.03.16,0,.08,0,.15-.01.23-.13-.02-.15-.33-.27-.04-.02.04-.17.02-.25.04-.28.06-.4.27-.3.54-.08.02-.16.03-.22.04-.05-.1-.1-.22-.16-.36l-.31.2c.03.09.07.19.12.33-.21-.07-.3-.03-.35.17-.07.26-.34.37-.57.36-.14,0-.19.05-.25.12-.04.04-.05.1-.09.12-.3.14-.62.28-.92.43-.06.03-.1.09-.16.13-.24.17-.48.34-.74.52,0,0,.05.04.14.13-.21.02-.37.04-.56.05-.1.17-.22.38-.34.6.04.02.08.04.14.07-.1.06-.18.15-.27.15-.14,0-.3-.03-.44-.05-.02,0-.05-.02-.07,0-.23.14-.45.27-.67.43-.05.04-.06.13-.09.21-.15,0-.36-.08-.34.22,0,.05-.11.15-.14.14-.24-.08-.26.12-.38.24-.19.19-.44.3-.67.45,0-.03-.02-.06-.05-.15-.26.48-.65.75-1.15.95,0,0-.06-.05-.09-.07-.07.1-.14.2-.21.3-.32-.32-.43.13-.61.12-.03.13-.05.24-.08.34-.02,0-.04,0-.06,0v-.34l-.06-.02c-.04.12-.07.25-.11.37-.02.04-.04.09-.08.11-.16.11-.32.24-.5.29-.2.05-.17.14-.1.29-.25.09-.5.18-.75.27-.02,0-.05.03-.05.05-.05.27-.3.26-.48.36-.14.08-.28.16-.25.36,0,.03-.02.06-.04.08-.07.1-.15.2-.22.31-.09.14-.14.33-.38.3-.05,0-.11.14-.18.18-.27.17-.54.32-.88.31-.06,0-.12.08-.18.13-.19.16-.38.33-.57.49-.14.11-.3.2-.43.33-.38.39-.88.55-1.35.78-.16.08-.29.21-.43.31,0,0,0-.02-.02-.04-.11.06-.21.11-.32.17-.09.05-.26,0-.24.19,0,.04-.08.1-.14.13-.17.1-.34.19-.52.27-.08.03-.18.02-.31.02.04.07.07.13.1.2-.03,0-.07,0-.09.02-.24.15-.48.31-.72.47-.13.09-.21.29-.43.16-.03-.02-.12.03-.15.07-.37.52-.93.8-1.46,1.07-.57.28-1.07.65-1.58,1.02-.24.17-.49.34-.74.51-.03.02-.05.05-.1.11.28.05.29.64.72.3.05.16.1.32.15.51.14-.05.27-.09.43-.14.15.2-.19.24-.19.42.16.2.25-.05.36-.01.06.02.12.06.19.06.24,0,.35.11.36.31.42.33.81.64,1.21.96.02-.02.05-.07.12-.15.02.14.04.24.07.38.17-.03.34-.05.52-.08.04,0,.1-.05.11-.04.03.04.06.09.07.15.02.06.01.13.02.2.05.24.33.45.55.42,0,.02-.02.05-.03.07.07.03.13.05.19.08.08.05.15.1.28.19.3-.02.49.11.47.38.17.04.37.04.52.13.12.07.19.24.3.39.12-.01.1-.01.1.16,0,.07.07.15.12.2.04.03.12.02.18.01.06,0,.11-.02.18,0-.08.05-.15.1-.22.14,0,.02,0,.03,0,.04.11-.03.21-.05.33-.08.1.09.23.2.37.32.05-.04.09-.08.14-.11.11.11.2.23.31.33.09.08.22.12.3.21.11.13.2.15.37.09.37-.12.73.1.96.46.09.14.17.29.41.36.36.09.67.36.99.57.09.06.11.21.19.29.18.19.45.29.56.55.24-.08.3.15.43.25.06.05.09.14.14.22.02-.03.06-.07.07-.08.14.1.26.21.4.29.11.07.32.05.27.29,0,.02.22.06.31.12.3.22.64.37.87.7.15.21.44.33.67.49.29.2.59.37.87.59.25.2.43.55.71.65.53.19.83.63,1.26.93.3.21.56.47.85.7.22.18.37.41.64.56.36.2.65.52.83.93.14.33.31.66.47.99.04.08.11.16.17.24.13.17.27.34.38.52.03.05,0,.14,0,.21-.01.06-.04.11-.07.18.14.02.24.03.36.04-.12.25-.32.32-.52.29-.27-.04-.55-.11-.81-.22-1.01-.45-1.88-1.12-2.72-1.81-.35-.29-.74-.52-.97-.96-.09-.17-.34-.27-.53-.38-.44-.26-.86-.55-1.21-.93-.1-.1-.23-.18-.36-.24-.11-.05-.26-.04-.27-.22,0-.03-.07-.05-.11-.08-.11-.08-.25-.13-.33-.23-.2-.24-.47-.35-.71-.52-.29-.2-.54-.46-.81-.69-.17-.14-.35-.25-.53-.38-.22-.17-.44-.36-.66-.52-.24-.18-.5-.34-.74-.52-.17-.12-.33-.3-.52-.38-.52-.2-.88-.57-1.21-1-.08-.11-.22-.17-.33-.25-.27-.18-.54-.35-.8-.54-.33-.24-.64-.5-.96-.75-.08-.07-.2-.12-.23-.21-.19-.48-.65-.63-1.01-.92-.11-.09-.19-.21-.29-.31-.05-.05-.09-.1-.14-.13-.33-.2-.69-.36-.89-.73-.02-.03-.05-.07-.08-.07-.39.02-.44-.37-.67-.55-.26-.2-.51-.43-.72-.69-.12-.15-.35-.16-.41-.42-.03-.14-.31-.22-.49-.33-.03-.02-.08-.02-.09-.04-.17-.43-.61-.57-.9-.87-.08-.08-.16-.18-.17-.28-.03-.26-.27-.28-.42-.41-.04-.03-.09-.06-.1-.11-.09-.28-.25-.17-.4-.07-.24.15-.48.31-.73.46-.09.05-.21.06-.25.07-.2.21-.25.36-.55.33-1.28-.11-2.42.55-2.97,1.71-.2.43-.66.47-1.02.66-.1.05-.15.2-.25.26-.32.19-.65.38-.98.56-.22.11-.59.24-.83.3-.43.12-.85.27-1.28.35-.4.08-.76.22-1.12.42-.05.03-.14,0-.21-.02-.37.07-.2.38-.21.57-.03.4.02.81.04,1.22,0,.04-.03.08-.04.13-.03.12-.08.24-.07.36.02.46.12.92-.04,1.38-.04.11.05.25.08.38,0,.05.01.11,0,.16-.11.48-.25.94-.24,1.44,0,.26-.08.52-.09.78-.01.44,0,.88.02,1.32,0,.02,0,.04,0,.05-.25.32-.08.71-.17,1.06-.04.16.04.35.02.52-.02.14-.05.34-.14.42-.23.18-.1.43-.08.59.02.26-.05.46-.18.64-.1.14-.09.23.02.34.03.03.04.09.05.14-.49.08-.17.56-.45.81-.02-.18-.03-.31-.05-.45-.05-.02-.12-.05-.24-.11.42-.09.07-.27.09-.39.1-.02.19-.03.33-.05-.3-.27-.2-.55-.18-.82.02-.18.05-.36.06-.54,0-.05-.07-.11-.12-.15-.04-.04-.1-.06-.22-.13.14-.03.21-.05.27-.07-.02-.01-.04-.03-.05-.04.06-.11.11-.23.2-.39-.09-.08-.22-.2-.37-.33,0,0,.03-.08.05-.13.12.02.24.04.39.06v-.3c-.08-.01-.17-.03-.22-.03-.02-.14,0-.27-.05-.33-.19-.19-.09-.36-.02-.55.02-.06.04-.14.04-.21,0-.03-.04-.06-.03-.09.02-.24.05-.47.08-.71.01-.11.02-.21.02-.31,0-.22-.03-.43-.04-.67,0,0-.06,0-.18.02.11-.15.18-.25.26-.36-.11-.17-.19-.4-.46-.54-.02-.06-.02-.16.15-.25.1-.05.29-.17.16-.38-.02-.04.02-.11.02-.17,0-.15-.02-.3-.07-.45.05-.09.17-.16-.02-.3-.06-.05,0-.23.02-.35-.22-.33-.24-.72.03-.82-.23-.34-.27-.72-.17-1.14.01,0,.07-.02.1-.04-.04-.08-.08-.17-.12-.25.29-.08.29-.08.01-.69.1.03.18.06.26.09,0,0,.02-.02.03-.03-.06-.06-.12-.12-.17-.18-.04-.05-.08-.11-.08-.16,0-.15.04-.3.03-.45,0-.07-.12-.12-.19-.19.05-.17.22-.45.14-.55-.19-.26.08-.53-.08-.73-.13-.16-.2-.35-.33-.5-.12-.14-.08-.76-.03-.93.06-.21.21-.4.09-.68-.13-.33-.06-.75-.14-1.11-.08-.35.11-.64.11-.97,0-.28.08-.57.06-.82-.02-.2-.05-.4-.02-.6.02-.11.05-.22.09-.35-.03,0-.09,0-.16-.02,0-.03.02-.05.02-.07,0-.24-.01-.48,0-.72,0-.09.05-.18.07-.28.02-.05.05-.12.04-.16-.17-.49-.17-1.01-.09-1.51.08-.46,0-.91-.02-1.37,0-.36-.03-.72-.03-1.08,0-.36.02-.73.05-1.09,0-.1.06-.19.07-.24-.04-.11-.08-.19-.08-.27.07-1.3-.03-2.61.24-3.89.03-.15-.05-.32-.06-.48,0-.52.06-1.02.3-1.5.14-.29.19-.62.34-.9.15-.28.16-.58.25-.87.05-.17.16-.32.14-.52,0-.04.11-.09.17-.13.06-.03.12-.06.17-.08-.06-.15-.11-.27-.17-.41.33-.06.49.14.56.34.15.41.28.84.34,1.28.23,1.69.17,3.39.07,5.09,0,.08-.03.17-.07.24-.11.24-.05.48-.03.73.02.23,0,.45.01.68,0,.25.02.49.01.74,0,.28-.03.56-.07.84-.03.2-.05.39.03.58.06.14.12.29-.03.42-.01,0-.02.03-.02.05.03.6.08,1.2.08,1.8,0,.45-.07.9-.09,1.35-.01.28.03.57,0,.85-.03.27.11.54-.07.8-.05.07.04.23.06.35.01.05.03.11.03.16,0,.56-.09,1.14.02,1.69.1.52.02,1.03.01,1.54,0,.29-.1.58-.1.87,0,.4.03.8.04,1.19,0,.33,0,.66,0,1h-.03Z"/><path class="cls-6" d="m78.97,87.97c-.21,0-.13.17-.12.26.02.2.08.4.16.57.04.07.12.13.11.2,0,.35-.05.7-.06,1.05-.01.29,0,.59,0,.88.14-.02.23.12.17.27-.11.27-.15.54-.09.85.04.18-.05.38-.09.58-.02.1-.06.21-.02.29.17.36.05.72.05,1.09,0,.39-.06.81.05,1.17.17.56.05,1.13.16,1.69.03.17.04.34.06.53-.61.13-1.22.2-1.82.1-.23-.04-.42-.01-.64,0-.42.03-.84.04-1.26.02-.29,0-.59,0-.85-.11-.7-.27-1.38.06-2.07.05-1.21-.02-2.42.12-3.64.14-.56.01-1.12-.1-1.68-.12-.4-.01-.8.04-1.19.06.02,0,.05-.02.16-.07-.28,0-.49,0-.69,0-.15,0-.29-.05-.43-.04-.2.02-.4.09-.61.09-.3.01-.6-.01-.9-.02-.31,0-.62,0-.92-.03-.16-.02-.32-.09-.55-.16.05.13.06.18.09.26-.14-.02-.27-.05-.4-.05-.71.02-1.42.03-2.13.06-.24,0-.46.03-.69-.1-.13-.07-.39-.15-.57.05-.03.03-.11.04-.17.03-.5-.05-.99.04-1.49.04-.82,0-1.64.07-2.45,0-.91-.09-1.82.02-2.73.02-.31,0-.63-.04-.94-.03-.24,0-.48.08-.72.08-1.3.02-2.59.02-3.89.02-.71,0-1.42.01-2.14.02-.02,0-.04,0-.05,0-.74-.19-1.48.08-2.22.03-.75-.05-1.51-.02-2.27-.02-.77,0-1.53,0-2.3,0-1.56-.01-3.13-.03-4.7-.05-.31,0-.64.06-.91-.03-.46-.16-.88.11-1.33.05-.44-.06-.89,0-1.34-.02-.42-.01-.84-.05-1.26-.08-.61-.04-1.22-.07-1.83-.14-1.04-.12-2.07-.26-3.1-.39-.14-.02-.28-.09-.42-.11-.09-.02-.19,0-.29,0-.07,0-.14.03-.2.03-.38-.04-.76-.07-1.14-.12-.21-.02-.41.08-.63-.12-.13-.12-.46-.03-.69,0-.23.02-.44-.02-.62-.18-.24-.21-.42-.24-.69-.08-.13.08-.24.12-.38.03-.04-.02-.1-.02-.15,0-.26.09-.26.09-.22-.16.21-.09.4-.22.6-.25,1.14-.15,2.28-.33,3.43-.42,3.21-.23,6.43-.27,9.64-.27,1.99,0,3.98,0,5.96.01.3,0,.61.09.91.11.18.02.36,0,.53,0,.46-.02.92-.07,1.38-.08,1.14-.01,2.28,0,3.42,0,.34,0,.69-.07,1.03-.06.31,0,.61.07.92.08.54.02,1.08.02,1.62,0,.52-.02,1.03-.08,1.55-.1.21,0,.42.05.63.07.09.01.19.04.28.02.91-.17,1.82-.07,2.73-.03.17,0,.35-.04.52-.05.07,0,.14-.02.2-.02.38,0,.76.01,1.13,0,1.69-.09,3.37,0,5.05.06.11,0,.22-.04.37-.07.11.12.25.09.46,0,.19-.08.44-.04.67-.04.39,0,.78-.01,1.18.02.25.02.49-.05.73-.06.25,0,.5.1.76.11.17,0,.34-.07.5-.11.04,0,.12,0,.13.02.08.17.22.13.32.07.34-.19.7-.07,1.05-.07.11,0,.21,0,.32,0,.21,0,.41,0,.62-.01.32-.02.65-.05.97-.06.12,0,.24,0,.36.01.62,0,1.25.06,1.87,0,1.18-.11,2.35-.13,3.52-.08.91.04,1.81.1,2.71.11.54,0,1.08-.05,1.61.4h.19c0-.68.02-.89.03-1.1.02-.18.04-.36.06-.55,0-.03.02-.07,0-.1-.24-.54-.01-1.08-.02-1.63,0-.67.03-1.34.05-2.01.02-.83.03-1.66.2-2.47.03-.15.08-.3.09-.45,0-.11-.05-.22-.05-.34,0-.11,0-.22.01-.33,0-.09.05-.17.05-.25,0-.67-.02-1.35-.02-2.02,0-.3.02-.6.03-.9,0-.15-.02-.3,0-.45.04-.36.12-.73.13-1.09.02-.5,0-.99,0-1.49,0-.19.03-.38.05-.58,0-.03,0-.07-.02-.1-.13-.75.02-1.5.07-2.24.03-.38.11-.77.02-1.12-.11-.42-.02-.79.05-1.18.03-.17.01-.34.02-.51.04-.53.09-1.06.12-1.59.03-.54.05-1.08.08-1.62.02-.33.07-.66.09-.99.02-.21-.1-.64-.1-.64v-.31s.07-.51.1-.77c.02-.26.08-.51.12-.77.02-.09.04-.17.04-.25,0-.57,0-1.14,0-1.71,0-.19-.04-.37-.05-.56,0-.09-.02-.21.02-.28.23-.4.11-.83.12-1.25.02-.42.06-.85.05-1.27,0-.27.1-.53.02-.8-.04-.13.03-.29.04-.43.01-.17.02-.34.02-.5,0-.26-.08-.59.05-.76.17-.22.06-.36.04-.54,0-.04,0-.09.02-.12.19-.27.14-.57.14-.86,0-.39-.02-.79,0-1.18.02-.3.07-.59.11-.89.02-.12.02-.25.02-.37.02,0,.06.02.05.02.29-.57.03-1.14.05-1.72.03.05.06.1.1.08h.06s.04-.08.02-.11c-.18-.19.01-.18.13-.23-.11-.29.05-.58-.03-.9-.07-.28.08-.62.13-.76h.07c.02.07.03.31.04.56l.12-.11c-.38.35-.05.66.05,1-.03-.02-.05-.04-.09-.06-.24.39.07.78-.03,1.18-.03-.07-.06-.14-.09-.2-.23.22-.1.44-.05.69.07.4.03.82.02,1.23,0,.32-.04.65-.06.97-.03.43-.07.87-.09,1.3,0,.16.02.32.04.48.21-.06.25,0,.21.41-.05,0-.11-.02-.24-.04.05.13.1.23.12.34.01.05-.02.11-.03.17-.03.14-.06.27-.09.41,0,.02,0,.06,0,.08-.31.43.12.77.15,1.17,0,0,.09.01.22.03-.3.16-.16.39-.2.6-.03-.08-.06-.15-.08-.21-.09,0-.34-.02-.34-.02v.81s.26.17.37.26c-.24.22-.2.43-.12.67.16.46.17.94.06,1.42-.04.16-.14.3-.15.46,0,.22.06.44.06.66,0,.24-.06.47-.08.71-.01.17-.03.35,0,.51.1.43,0,.83-.1,1.24-.04.18,0,.37.02.56.1.6.05,1.2-.05,1.8,0,.06,0,.12.05.22l.07-.2s.07.04.11.06c-.08.27-.15.54-.22.81-.02.09-.06.18-.05.26.09.46.19.92.29,1.43.04-.07.07-.11.09-.15.02.31.16.63-.12.92-.11.12-.21.29,0,.45-.37.05-.26.36-.22.48.09.21,0,.39,0,.59.02.2.04.42-.02.6-.07.22-.03.4,0,.6.02.1.09.21.07.3-.02.15-.13.31-.11.46.03.27.12.54.19.83-.13.2-.27.41-.14.73.09.22.11.49.12.73.02.46,0,.92,0,1.8h-.08c-.03-.44-.06-.47-.09-.5,0,.03-.03.05-.02.08,0,.13.02.26.04.39.04.43.08.87.12,1.3,0,.08.06.15.11.27-.14.32-.2.71-.12,1.11.03.18,0,.33-.19.34.05.27.11.52.16.77-.03,0-.05,0-.08-.01-.05.09-.14.19-.15.29-.02.29,0,.57,0,.86,0,.13-.02.26-.03.39h0s0,.01,0,.01Z"/><path class="cls-6" d="m50.13,71.29c-.08.06-.15.11-.22.17-.04-.35.06-.58.38-.71.34-.14.7-.27,1.06-.29.66-.05,1.32-.02,1.98,0,.16,0,.31.12.48.14.15.02.31.02.46,0,.39-.04.79-.08,1.17.05.04.01.09.02.12,0,.29-.15.58-.07.87-.02.07.01.15,0,.22-.03.36-.1.7.02,1.06.06.22.02.44-.02.66-.02.11,0,.22.05.33.05.12,0,.23-.07.35-.08.12-.01.24,0,.36.01.12,0,.27.03.37-.01.36-.16.69-.04,1.04.05.2.05.43-.01.64,0,.43,0,.87.01,1.3.02.05,0,.12,0,.15.04.22.25.51.14.77.14.18,0,.36-.09.52.08.04.05.21-.03.32-.03.17,0,.33.05.5.05.09,0,.18-.02.26-.06.44.16.89.29,1.39.27.33,0,.65.11.98.17.13.02.27-.01.39.02.17.04.33.12.47.17.04-.25.11-.55.14-.85.03-.26.11-.56.06-.79-.04-.22-.04-.42-.02-.63,0-.09.06-.19.09-.3-.03,0-.09-.02-.15-.03,0-.02.02-.04.02-.06,0-.22,0-.44,0-.65,0-.13-.12-.27.08-.35.04-.02,0-.03-.05-.16-.05-.13-.05-.28-.04-.42.03-.44-.05-.87.07-1.33.09-.33-.04-.72-.06-1.08-.02-.39-.02-.78-.02-1.17,0-.32,0-.65.04-.97.06-.41-.05-.81-.01-1.22.04-.42.03-.84.05-1.26.02-.43.05-.86.09-1.28.02-.2.09-.4.1-.6,0-.18-.05-.35-.05-.53,0-.44.05-.86.23-1.27.15-.34.24-.71.41-1.04.14-.28.18-.57.26-.86.05-.17.18-.32.15-.51,0-.02.03-.04.05-.06.12-.13.19-.35.14-.53.28-.07.46.11.53.31.15.43.29.87.36,1.31.22,1.66.17,3.33.07,5,0,.06-.02.12-.03.18-.04.23-.09.46-.1.68,0,.33.02.66.03.99,0,.07-.02.14,0,.21.1.47-.05.93-.06,1.39,0,.11.05.22.05.33,0,.13,0,.27-.02.4,0,.04-.02.08-.02.12,0,.28,0,.56,0,.84,0,.18,0,.36.03.54.11.61-.03,1.21-.08,1.82-.02.24.06.5.04.74-.03.25.12.51-.06.76-.05.07.05.24.07.36.01.07.02.15.02.22,0,.55-.09,1.12.02,1.65.1.51.05.99,0,1.47-.05.4-.09.79-.04,1.2.04.35-.09.72-.03,1.06.09.48-.06.93-.02,1.4.02.22-.07.44-.11.66-.02.12-.19.22-.02.36.05.04-.03.21-.04.32,0,.25,0,.5.01.75,0,.22-.02.42-.08.63-.07.25.06.54.07.82,0,.19-.04.39-.08.59s-.15.36.04.57c.07.07-.07.32-.09.49-.05.36-.09.71-.13,1.07-.03.26-.12.54-.09.79.05.35-.08.67-.05,1.01.04.47-.1.93-.12,1.4,0,.2.03.41-.03.6-.1.36-.26.69-.13,1.08.02.06-.09.16-.12.25-.07.21-.33.41.01.64-.55.07-.22.56-.5.82-.03-.18-.05-.31-.07-.46-.05-.02-.11-.05-.23-.11.42-.09.09-.26.09-.14h.34c-.31-.56-.2-.87-.17-1.17.02-.15.05-.3.06-.45,0-.09.04-.22-.15-.19-.04,0-.1-.06-.13-.15.06,0,.12,0,.14-.01.06-.15.12-.28.2-.46-.1-.08-.24-.19-.38-.29.01-.03.04-.09.07-.15.12.02.25.03-.04.05v-.29c.34-.02.23-.04.13-.06-.01-.02-.03-.04-.04-.06.06-.02.13-.04.19-.06-.34-.42-.29-.49-.06-.8-.02,0-.05,0-.07-.01.02-.15.1-.32.06-.45-.12-.32.12-.63-.02-.95-.06-.13.02-.32.05-.5-.05.02-.11.03-.16.05l-.04-.04c.08-.11.15-.21.24-.33-.1-.17-.19-.39-.46-.52-.01-.07-.02-.16.15-.25.25-.14.16-.44.19-.67.01-.1-.04-.21-.07-.35,0-.05.06-.21.02-.23-.2-.15-.08-.26.02-.39-.26-.15-.29-.48-.19-.65.21-.32-.1-.51-.07-.77.02-.11.03-.22.05-.33.02-.09.04-.17.07-.3-.1-.09-.09-.1.06-.22.06-.05.09-.18.09-.27,0-.07-.06-.15-.11-.2-.04-.04-.12-.06-.17-.09.02-.02.05-.05.07-.07.07.02.14.03.25.06-.02-.06-.02-.1-.04-.11-.28-.14-.18-.39-.15-.6.02-.18,0-.25-.2-.22.06-.22.22-.49.15-.6-.16-.26.05-.5-.06-.72-.08-.16-.2-.31-.31-.45-.23-.3-.11-.63-.08-.94.02-.24.27-.44.08-.73-.07-.1-.01-.27-.04-.4-.02-.08-.08-.15-.13-.23-.02,0-.05.02-.07.03l-.04.23s.03-.05.05-.07c-.13-.06-.25-.12-.39-.19-.03.06-.1.17-.2.36-.01-.19-.02-.33-.03-.46l-.06-.04c-.05.08-.09.15-.12.2-.1.07-.19.13-.3.19-.37-.25-.83-.12-1.23-.19v.19c-.11-.09-.17-.15-.25-.24-.1.15-.19.28-.31.45-.06-.09-.13-.2-.21-.32-.17-.06-.35.06-.54.03-.11-.02-.25.11-.38.16-.14.05-.28.09-.35-.15-.2.38-.5.14-.73.16-.05-.07-.09-.15-.15-.18-.04-.02-.11.08-.17.1-.08.03-.16.06-.25.06-.09,0-.19,0-.3-.02-.01.06-.02.12-.03.14-.25-.02-.47-.05-.69-.07-.4.54-.72.62-1.02.28-.34.07-.66.16-.98.19-.16.02-.33-.06-.5-.1-.26-.05-.52-.13-.79-.14-.18,0-.37.09-.57.15-.03-.04-.07-.09-.09-.13-.06.02-.11.06-.17.06-.29.03-.57.12-.87-.03-.13-.06-.34-.02-.5.03-.46.15-.91,0-1.36,0-.37,0-.74,0-1.1-.03-.4-.03-.8-.11-1.2-.15-.22-.02-.47.05-.65-.03-.38-.17-.72-.42-1.07-.64-.1-.06-.21-.12-.31-.19-.2-.13-.51-.16-.47-.52v.02Z"/><path class="cls-6" d="m42.13,58.61c-.24-.05-.19-.09-.1-.15-.08.43.33.21.44.39-.11.09-.21.17-.32.26-.04-.19-.14-.05-1.02.06v-.3c.45.28.2-.03-.1-.09-.04.06-.08.13-.13.23-.08-.14-.14-.26-.22-.4-.12.06-.24.12-.42.22.1-.18.16-.29.22-.4-.2-.18-.19.09-.29.07-.05,0-.12,0-.17-.02-.09-.03-.19-.06-.26-.12-.13-.13-.25-.27-.36-.42-.15-.19-.28-.39-.43-.59-.02,0-.06.02-.14.05.03-.11.05-.19.07-.29-.17-.04-.34-.09-.55-.14,0-.01,0-.09.04-.14.18-.23.17-.42,0-.66-.03-.04.05-.15.02-.19-.15-.19-.22-.43-.18-.64.04-.22.02-.44.05-.66.02-.14.16-.26.26-.41.04,0,.16,0,.18-.05.03-.06-.02-.16-.02-.25,0-.05.02-.09.05-.13.08-.13.16-.26.25-.39-.04-.03-.09-.08-.11-.1.2-.19.41-.36.56-.57.09-.13.06-.34.08-.51.02-.12.32-.46.43-.44.23.04.38-.01.56-.19.22-.2.53-.3.81-.43.05-.02.13,0,.2,0,.1,0,.2.04.3.03.21-.02.45.06.61.02.19-.04.34,0,.5.03.07.02.12.08.2.13,0-.02.03-.07.04-.08.24.07.48.15.71.22,0,.02-.02.03-.02.04.11.06.21.13.32.18.37.17.69.37.84.79.08.21.26.4.42.57.34.36.42.81.49,1.26.03.22.08.46.08.67,0,.88-.14,1.73-.8,2.4-.07.07-.08.2-.14.29-.39.53-.93.66-1.55.6-.24-.03-.49-.05-.73-.1-.12-.02-.22-.11-.35-.19,0,0-.03.04-.07.11-.13-.26-.07-.49.05-.69.13-.22.3-.42.45-.63.22-.32.42-.66.67-.94.26-.29.15-.59.16-.91.01-.3-.11-.51-.22-.75-.2-.42-.51-.75-.96-.82-.19-.03-.5-.12-.7.14-.06.08-.24.13-.36.11-.39-.06-.53.28-.78.45-.24.17-.3.53-.65.59-.02,0-.04.05-.04.07-.05.32-.33.58-.2.94.02.05-.06.14-.07.21,0,.05,0,.11.02.16.02.06.06.12.06.19-.04.31.04.57.25.8.19.21.36.43.53.65.03.04.1.06.15.08.08.04.21.06.23.12.13.4.65.28,1.1.65h0Z"/><path class="cls-6" d="m32.97,82.37s-.05-.02-.06-.02c.08-.21.15-.41.24-.67.08-.18.17-.43.31-.65.12-.2.35-.35.46-.55.23-.43.63-.66,1.03-.9.69-.42,1.42-.58,2.21-.41.26.05.52.14.78.22.44.12.62.5.78.87.12.26.19.54.27.82.03.11,0,.23,0,.36,0,0,.05,0,.12-.01-.07.25-.26.35-.46.38-.2.03-.42.04-.61-.01-.48-.13-.94-.29-1.41-.44-.04,0-.08,0-.11,0-.45.18-.87.38-1.05.87,0,.02-.02.05-.04.06-.32.18-.38.55-.44.83-.05.23-.24.52-.04.81.06.09-.04.29-.05.44,0,.11-.02.22.02.33.08.26.19.51.27.77.04.12-.09.3.09.39.24.11.25.46.57.48.07,0,.12.17.19.27.05-.02.1-.03.15-.05.17.25.39.4.71.46.34.06.66.11,1,.02.1-.03.23.02.29.03.23-.05.43-.09.65-.14,0,0,0-.05,0-.03.2-.02.37-.04.58-.07-.07.17-.13.33-.19.5-.05-.06-.1-.11-.18-.2.02.43-.38.31-.57.49.02.07.04.15.06.23-.14-.04-.26-.08-.41-.12v.36l-.05.02c-.05-.13-.11-.26-.17-.4-.11.16-.21.31-.28.41-.39-.02-.74-.02-1.08-.05-.06,0-.12-.08-.19-.13-.01.07-.02.12-.04.23-.06-.12-.1-.19-.15-.29-.13.11-.26.22-.42.36-.02-.05-.04-.1-.05-.15-.03-.26-.33-.45-.61-.4-.1.02-.22-.05-.31-.1-.1-.05-.3-.08-.12-.3-.35.1-.48-.12-.61-.33-.02-.03-.03-.08-.02-.1.08-.23.08-.23-.15-.2-.03,0-.07-.02-.12-.03.08-.04.15-.08.22-.12,0-.01,0-.02-.01-.03-.08.01-.15.03-.23.04-.12-.07-.05-.39-.32-.26-.07-.21-.13-.43-.2-.63-.01-.03-.07-.09-.09-.08-.19.07-.25-.13-.39-.18-.18-.06-.19-.45-.05-.68.02-.04.06-.09.05-.12-.05-.19-.12-.38-.17-.58-.05-.19-.02-.36.06-.56.07-.2.24-.4.16-.66-.03-.09.12-.23.19-.36h0Z"/><path class="cls-6" d="m80.19,7.67c-.01.12-.02.23-.04.39-.04-.08-.08-.12-.1-.17-.05-.15-.16-.12-.26-.06-.12.07-.24.13-.34.22-.18.16-.27.06-.33-.06l-.56.39s-.02-.03-.03-.05c-.02.15-.05.3-.08.5-.12-.05-.22-.09-.33-.13-.13.11-.21.26-.49.22-.24-.04-.52.17-.79.23-.66.16-1.27.47-1.96.58-.41.07-.63-.09-.92-.26-.14-.09-.29-.17-.44-.25-.59-.29-.66-.9-.12-1.3.32-.24.67-.45,1.11-.35.05,0,.1-.05.16-.07.19-.06.38-.1.56-.17.16-.06.31-.15.47-.2.29-.1.61-.14.89-.27.21-.1.48-.03.64-.27.04-.05.2-.08.26-.05.18.1.32-.01.48-.05.25-.05.51-.19.76.02.03.02.1,0,.15,0,.26-.04.51-.05.77-.05.3,0,.55.15.84.16.14,0,.28.05.42.05.15,0,.26,0,.36.15.08.11.28.12.37.22.12.14.4.26.17.52-.16-.07-.34-.17-.55,0-.05-.03-.14-.09-.23-.14-.04.08-.08.18-.13.29l-.03-.09c-.22.02-.44.03-.68.05h0Z"/><path class="cls-6" d="m63.13,9.35c-.67-.14-.68-.24-.69-.67h-.09c.04.29.07.25.12.19-.06-.04-.12-.08-.19-.12.19-.37.15-.48-.22-.58.12-.03.2-.05.23-.06.02-.21.03-.39.05-.58,0-.02.11-.01-.24-.02v-.48c.41,0,.43,0,.45,0-.06-.15-.12-.29-.19-.44.08-.03.16-.05.27-.09-.02-.34.33-.31.55-.42.3-.15.6-.3.92-.38.34-.09.68-.03,1.03.09.43.15.41.46.43.82.03.53-.13.98-.49,1.36-.1.11-.17.24-.34.04-.05-.06-.26-.04-.38,0-.24.11-.47.24-.7.39-.13.08-.24.2-.36.3-.22.2-.44.41-.67.61-.04.03-.13.01.47.02h0Z"/><path class="cls-6" d="m14.18,50.67s0,0-.02,0c-.03,0-.09.01-.09.01-.03-.21-.07-.41-.1-.66.19.2.36.37.2.63h0Z"/><path class="cls-6" d="m78.97,87.97s.08,0,.11,0c.04.17.08.33.12.5-.1-.15-.39-.23-.22-.5h0Z"/><text class="cls-4" transform="translate(0 121.92)"><tspan class="cls-2" x="0" y="0">K</tspan><tspan x="12.56" y="0">o</tspan><tspan class="cls-7" x="21.52" y="0">c</tspan><tspan class="cls-1" x="29.68" y="0">h </tspan><tspan class="cls-3" x="44.24" y="0">F</tspan><tspan x="54.75" y="0">u</tspan><tspan class="cls-5" x="64.91" y="0">r</tspan><tspan x="73.2" y="0">niture Design</tspan></text></svg>